<?xml version="1.0" standalone="no"?>
<!DOCTYPE svg PUBLIC "-//W3C//DTD SVG 20010904//EN"
 "http://www.w3.org/TR/2001/REC-SVG-20010904/DTD/svg10.dtd">
<svg version="1.0" xmlns="http://www.w3.org/2000/svg"
 width="1024.000000pt" height="1024.000000pt" viewBox="0 0 1024.000000 1024.000000"
 preserveAspectRatio="xMidYMid meet">

<g transform="translate(0.000000,1024.000000) scale(0.100000,-0.100000)"
fill="#000000" stroke="none">
<path d="M1894 8970 c-79 -18 -145 -82 -169 -162 -23 -78 -23 -1732 0 -1799
22 -63 66 -113 127 -143 l52 -26 598 0 599 0 -3 -132 -3 -133 -592 -2 -593 -1
-54 -25 c-73 -34 -130 -88 -163 -155 l-28 -57 0 -2350 0 -2350 33 -67 c37 -76
82 -120 162 -157 l55 -26 917 -3 916 -3 4 -130 c3 -131 3 -131 32 -156 26 -22
37 -25 88 -21 94 7 102 20 108 180 l5 131 200 -1 200 -1 5 -74 c7 -104 11
-107 139 -107 58 0 111 4 117 8 23 15 34 53 34 116 l0 66 65 0 65 0 0 -73 c0
-112 6 -117 145 -117 139 0 145 5 145 117 l0 73 65 0 65 0 0 -78 c0 -64 4 -82
18 -95 17 -15 69 -17 548 -17 291 0 534 4 540 8 23 15 34 53 34 116 l0 66 39
0 c21 0 59 -3 85 -6 l46 -7 0 -62 c0 -48 5 -68 21 -89 20 -26 21 -26 164 -26
143 0 144 0 164 26 17 21 21 41 21 95 l0 68 708 3 707 3 63 34 c74 40 115 84
151 161 l26 55 3 819 c2 710 4 822 17 836 12 14 15 54 14 226 0 133 -5 221
-12 241 -24 65 -73 119 -133 149 l-59 29 -1537 3 -1538 3 -2 1037 -3 1037 -22
40 c-12 22 -32 52 -45 67 -34 40 -416 355 -466 385 -87 52 -96 53 -484 53
-200 1 -373 3 -385 7 -22 5 -23 9 -23 134 l0 129 598 0 598 0 55 28 c66 33
113 93 128 162 7 35 11 321 11 889 0 951 3 909 -76 987 -82 80 45 74 -1713 73
-861 -1 -1580 -4 -1597 -9z m3090 -1006 c-1 -399 -4 -727 -7 -730 -2 -3 -672
-5 -1488 -6 l-1484 -1 -2 732 -3 731 1493 0 1493 0 -2 -726z m-385 -1677 c13
-6 34 -25 45 -40 21 -28 21 -29 24 -1162 l2 -1134 -497 -3 c-541 -3 -530 -2
-591 -61 -64 -61 -76 -97 -80 -246 -6 -221 13 -251 159 -251 l89 0 0 -880 0
-880 -870 0 c-792 0 -873 1 -896 16 -58 38 -54 -125 -54 2330 l0 2256 34 34
34 34 1289 0 c1002 0 1293 -3 1312 -13z m3730 -2583 c36 -25 51 -75 51 -164
l0 -80 -579 0 -579 0 -103 -112 c-57 -62 -104 -114 -105 -116 -1 -2 -107 -4
-234 -5 l-232 -2 -24 -28 c-21 -25 -24 -38 -24 -116 0 -74 3 -93 21 -115 l20
-26 917 -2 917 -3 3 -112 3 -113 -915 0 c-885 0 -915 -1 -937 -19 -23 -18 -24
-26 -24 -126 0 -100 1 -108 24 -126 22 -18 52 -19 937 -19 l914 0 0 -115 0
-115 -909 0 -910 0 -25 -22 c-26 -24 -29 -39 -27 -159 2 -116 -107 -103 948
-109 l918 -5 -2 -98 c-2 -113 -18 -151 -73 -179 -33 -17 -158 -18 -2177 -18
l-2143 0 0 980 0 979 -112 3 -113 3 -1 60 c0 39 5 66 14 78 14 16 135 17 2276
17 2075 0 2263 -1 2285 -16z"/>
<path d="M2224 6052 c-41 -33 -44 -52 -44 -295 l0 -235 29 -31 29 -31 1057 0
1057 0 34 34 34 34 0 231 c0 258 -5 280 -61 300 -23 8 -336 11 -1073 11 -971
0 -1042 -2 -1062 -18z m1873 -237 c69 -48 10 -160 -70 -133 -52 19 -63 82 -22
123 28 28 61 32 92 10z"/>
<path d="M2206 5244 l-26 -27 0 -244 0 -245 29 -29 29 -29 1059 0 c987 0 1059
2 1079 18 41 33 44 52 44 292 l0 232 -29 29 -29 29 -1065 0 -1064 0 -27 -26z"/>
<path d="M3097 2356 c-61 -22 -107 -65 -134 -124 -35 -75 -30 -169 13 -233 83
-124 247 -146 358 -48 54 47 78 105 78 184 1 163 -160 276 -315 221z m135
-163 c18 -16 25 -87 10 -109 -14 -22 -53 -35 -83 -29 -89 20 -72 155 19 155
20 0 44 -7 54 -17z"/>
<path d="M5215 3619 c-336 -25 -638 -230 -785 -534 -74 -153 -94 -246 -94
-440 0 -134 4 -174 23 -250 55 -216 177 -403 346 -529 396 -299 962 -261 1310
89 172 172 260 377 272 631 7 145 -7 255 -48 379 -74 222 -216 400 -416 520
-184 111 -365 151 -608 134z m266 -204 c26 -9 57 -27 70 -41 22 -23 24 -34 23
-117 -1 -74 -6 -106 -29 -167 -46 -124 -73 -173 -93 -164 -9 4 -42 14 -73 22
l-57 16 -11 70 c-16 94 -64 237 -106 311 -18 33 -34 65 -34 70 -4 28 231 28
310 0z m-591 -222 c66 -33 195 -158 234 -227 l28 -48 -39 -37 c-21 -20 -48
-48 -58 -62 l-20 -27 -74 24 c-98 32 -198 52 -299 60 l-84 7 6 31 c13 69 69
161 142 234 39 39 80 72 90 72 10 0 44 -12 74 -27z m1065 -103 c54 -85 85
-161 92 -224 5 -46 2 -55 -21 -84 -48 -56 -209 -121 -341 -137 -42 -6 -56 -4
-58 6 -2 8 -11 42 -19 76 l-14 62 58 62 c72 75 122 148 178 257 42 82 42 83
63 65 11 -10 39 -47 62 -83z m-581 -294 c41 -17 73 -57 86 -107 24 -89 -38
-178 -129 -187 -62 -6 -101 9 -141 54 -35 40 -46 90 -30 138 31 96 123 140
214 102z m-386 -156 c6 0 12 -8 12 -18 0 -10 7 -40 16 -66 l17 -48 -55 -56
c-87 -90 -125 -143 -182 -252 l-53 -102 -29 36 c-79 99 -144 243 -144 321 0
60 60 108 186 149 77 25 176 45 199 41 11 -3 26 -5 33 -5z m687 -181 c87 -24
243 -49 313 -49 60 0 62 -4 32 -80 -45 -114 -155 -250 -203 -250 -62 0 -287
182 -331 267 l-16 33 52 54 c32 33 59 53 68 50 8 -3 47 -14 85 -25z m-466 -94
c25 -8 58 -17 73 -20 18 -3 29 -13 32 -28 30 -145 83 -282 153 -390 23 -35 14
-42 -81 -58 -118 -20 -244 2 -299 51 -31 27 -32 31 -31 107 1 47 10 109 23
158 22 78 69 195 79 195 2 0 25 -7 51 -15z"/>
<path d="M7885 7575 c-280 -52 -462 -222 -537 -500 -19 -72 -22 -112 -26 -424
-5 -439 7 -538 90 -711 77 -161 222 -277 408 -327 103 -28 350 -25 455 5 113
33 190 77 265 152 107 106 165 238 177 403 l6 87 -207 0 -206 0 0 -37 c0 -72
-31 -155 -75 -199 -97 -97 -271 -101 -374 -8 -57 51 -87 114 -101 211 -13 94
-13 664 1 739 33 179 150 277 311 260 141 -14 221 -105 236 -268 l5 -58 205 0
205 0 -7 87 c-15 193 -61 308 -172 420 -122 125 -283 184 -492 182 -54 0 -128
-7 -167 -14z"/>
<path d="M5800 6596 l0 -966 205 0 205 0 0 324 0 324 228 4 c213 4 232 6 307
31 256 84 387 286 387 597 0 210 -50 347 -172 471 -69 71 -184 135 -285 159
-34 9 -185 14 -462 17 l-413 5 0 -966z m776 567 c51 -27 98 -80 115 -130 7
-21 13 -79 14 -129 0 -81 -3 -96 -30 -149 -27 -52 -38 -63 -89 -90 -58 -29
-64 -30 -218 -33 l-158 -3 0 281 0 282 163 -4 c143 -3 167 -6 203 -25z"/>
<path d="M7620 5320 c-107 -14 -196 -72 -239 -158 -36 -71 -43 -136 -39 -377
3 -210 5 -235 26 -286 49 -123 141 -187 282 -196 143 -10 253 35 318 131 58
87 64 125 60 408 -3 234 -5 256 -25 300 -63 136 -204 202 -383 178z m149 -218
c43 -32 50 -70 50 -289 1 -231 -7 -268 -63 -298 -67 -36 -161 -3 -188 65 -5
13 -9 121 -9 238 0 189 2 217 18 245 38 65 132 84 192 39z"/>
<path d="M5967 5302 c-109 -39 -168 -120 -175 -241 -9 -163 60 -241 300 -341
96 -39 128 -73 128 -136 0 -71 -46 -103 -132 -91 -54 7 -90 43 -97 97 l-6 42
-60 0 c-33 1 -82 0 -109 0 l-49 -2 7 -57 c13 -112 75 -202 169 -244 45 -21 68
-24 162 -24 95 0 117 3 163 24 113 51 181 170 168 294 -13 129 -65 183 -262
277 -82 39 -148 77 -158 91 -44 63 4 149 84 149 33 0 48 -6 71 -29 16 -16 30
-40 30 -53 1 -13 2 -29 3 -37 1 -11 24 -14 105 -15 l103 -1 -4 65 c-3 38 -14
82 -26 106 -27 53 -92 109 -150 128 -62 22 -203 20 -265 -2z"/>
<path d="M6557 5303 c-3 -5 -4 -228 -3 -498 l1 -490 103 -3 102 -3 0 206 0
205 120 0 120 0 0 -205 0 -205 105 0 105 0 0 500 0 500 -105 0 -105 0 0 -190
0 -190 -120 0 -120 0 0 190 0 190 -99 0 c-55 0 -102 -3 -104 -7z"/>
<path d="M8160 4810 l0 -501 103 3 102 3 3 178 2 177 95 0 c123 0 186 22 247
88 61 66 82 134 76 255 -7 138 -49 210 -162 270 -38 20 -57 22 -253 25 l-213
3 0 -501z m382 281 c27 -24 32 -36 35 -87 7 -109 -36 -152 -154 -153 l-53 -1
0 135 0 135 70 0 c63 0 73 -3 102 -29z"/>
</g>
</svg>
